<svg viewBox="0 0 288 265" fill="none" xmlns="http://www.w3.org/2000/svg">
    <path
        d="M31.2101 211.175C32.1504 221.443 38.9854 230.054 47.5616 232.193C58.1125 234.825 68.1157 231.302 73.5844 222.316C81.4545 209.384 88.9077 196.198 96.5447 183.123C97.2939 181.841 98.0845 180.583 99.323 178.545C101.228 182.33 103.211 185.428 104.373 188.809C105.609 192.407 107.587 193.542 111.339 193.53C150.825 193.406 190.311 193.438 229.798 193.463C239.739 193.47 245.912 197.198 248.531 204.591C251.688 213.505 246.211 223.443 236.943 225.357C234.359 225.89 231.665 226.098 229.021 226.101C190.534 226.147 152.047 226.238 113.562 226.009C108.337 225.978 105.507 227.414 103.482 232.357C90.6204 263.746 50.6535 272.862 24.3469 255.601C3.6055 241.991 -5.34789 215.192 3.24795 190.381C10.7495 168.729 34.9196 153.339 58.357 155.72C57.2658 157.759 56.3276 159.64 55.2769 161.455C48.8586 172.545 42.0789 183.443 36.1371 194.782C33.5963 199.63 32.7839 205.384 31.2101 211.175Z"
        fill="url(#paint0_linear_3_7)" />
    <path
        d="M282.863 187.963C295.206 215.087 281.791 248.783 254.766 259.627C224.175 271.901 194.772 256.466 184.616 233.122C200.235 233.122 215.685 233.183 231.135 233.102C243.364 233.038 252.215 226.959 255.34 216.711C259.979 201.499 249.137 186.649 232.872 186.357C218.711 186.102 204.542 186.299 190.377 186.296C188.567 186.296 186.758 186.296 183.778 186.296C186.146 182.579 187.798 179.374 190.035 176.649C192.237 173.966 192.441 171.868 190.643 168.771C171.339 135.519 152.192 102.177 133.001 68.8597C132.004 67.1286 130.956 65.4245 130.014 63.6641C125.301 54.8582 127.719 44.9891 135.636 40.6099C144.055 35.9535 152.994 38.5424 158.194 47.4645C171.519 70.3295 184.708 93.2745 197.965 116.18C205.052 128.425 212.249 140.608 219.207 152.925C220.782 155.712 222.594 156.479 225.659 156.093C251.669 152.821 271.157 163.647 282.863 187.963Z"
        fill="url(#paint1_linear_3_7)" />
    <path
        d="M70.6984 213.513C69.7609 215.119 69.0588 216.449 68.2145 217.681C62.4736 226.06 53.7885 228.222 45.7496 223.305C37.9363 218.527 35.7217 209.935 40.6648 201.133C51.2551 182.277 62.1159 163.572 72.9143 144.833C82.3006 128.545 91.6619 112.24 101.254 96.0725C103.175 92.8344 102.92 90.7446 100.647 87.794C82.7438 64.5583 86.1105 30.959 108.968 13.0511C125.789 -0.128259 145.014 -4.26173 165.199 4.99846C184.905 14.039 195.97 29.6283 197.761 51.6023C198.752 63.7574 195.267 74.4744 188.603 85.1859C187.518 83.6291 186.637 82.533 185.936 81.3316C178.476 68.5409 171.139 55.6778 163.575 42.9497C158.178 33.8689 149.96 29.8684 139.544 31.4234C130.376 32.7922 124.149 38.2945 121.234 47.0871C118.852 54.2721 120.089 61.1712 123.898 67.6865C131.12 80.0379 138.279 92.4259 145.448 104.808C146.098 105.929 146.63 107.119 147.694 109.217C143.639 109.009 140.209 109.195 136.933 108.57C133.057 107.832 130.974 108.984 128.983 112.461C109.723 146.102 90.2677 179.63 70.6984 213.513Z"
        fill="url(#paint2_linear_3_7)" />
    <defs>
        <linearGradient id="paint0_linear_3_7" x1="124.714" y1="155.477" x2="124.714" y2="264.222"
            gradientUnits="userSpaceOnUse">
            <stop stop-color="#FF6AE7" stop-opacity="0.73" />
            <stop offset="0.432292" stop-color="#7F46E2" />
            <stop offset="1" stop-color="#39009D" />
        </linearGradient>
        <linearGradient id="paint1_linear_3_7" x1="207.549" y1="38.3342" x2="207.549" y2="263.95"
            gradientUnits="userSpaceOnUse">
            <stop stop-color="#FF6AE7" stop-opacity="0.73" />
            <stop offset="0.432292" stop-color="#7F46E2" />
            <stop offset="1" stop-color="#39009D" />
        </linearGradient>
        <linearGradient id="paint2_linear_3_7" x1="117.982" y1="0" x2="117.982" y2="225.904"
            gradientUnits="userSpaceOnUse">
            <stop stop-color="#FF6AE7" stop-opacity="0.73" />
            <stop offset="0.432292" stop-color="#7F46E2" />
            <stop offset="1" stop-color="#39009D" />
        </linearGradient>
    </defs>
</svg>