<svg viewBox="0 0 240 107" fill="none" xmlns="http://www.w3.org/2000/svg">
    <path
        d="M3.2298 41.7551C12.3517 41.7687 21.2768 41.6915 30.1984 41.8335C35.078 41.9112 39.868 42.6784 44.0771 45.469C50.7531 49.8954 53.1545 56.4192 52.8869 64.0536C52.5678 73.1586 47.7435 79.2908 39.4889 83.2031C39.7174 83.599 39.9525 84.0781 40.2514 84.5134C44.3234 90.4436 48.4427 96.3421 52.4416 102.321C53.043 103.22 53.5515 104.651 53.2387 105.529C53.0202 106.142 51.3367 106.468 50.2907 106.51C47.2261 106.636 44.1519 106.504 41.0836 106.57C38.4224 106.627 36.504 105.613 35.0299 103.338C31.738 98.2578 28.234 93.314 24.9492 88.2291C24.1731 87.0277 23.5955 85.5115 23.4958 84.1001C23.2807 81.0512 23.4642 77.976 23.427 74.9123C23.4019 72.8463 24.4018 71.9294 26.4218 71.9137C27.7044 71.9037 28.9986 71.8781 30.2662 71.7041C34.2232 71.1612 37.61 67.5917 37.6723 63.989C37.7421 59.9527 34.892 56.2758 30.62 55.9357C25.6761 55.5422 20.6767 55.8441 15.4306 55.8441C15.4306 56.4046 15.4306 57.1584 15.4306 57.9121C15.4306 72.664 15.4326 87.4158 15.4292 102.168C15.4283 105.957 14.8579 106.538 11.1343 106.553C8.49288 106.563 5.84971 106.611 3.21049 106.535C0.692607 106.462 0.0197941 105.793 0.0169438 103.3C-0.00529665 83.9155 -0.00554483 64.5314 0.0156232 45.1474C0.0185126 42.5065 0.490577 42.0588 3.2298 41.7551Z" />
    <path
        d="M3.2298 41.7551C12.3517 41.7687 21.2768 41.6915 30.1984 41.8335C35.078 41.9112 39.868 42.6784 44.0771 45.469C50.7531 49.8954 53.1545 56.4192 52.8869 64.0536C52.5678 73.1586 47.7435 79.2908 39.4889 83.2031C39.7174 83.599 39.9525 84.0781 40.2514 84.5134C44.3234 90.4436 48.4427 96.3421 52.4416 102.321C53.043 103.22 53.5515 104.651 53.2387 105.529C53.0202 106.142 51.3367 106.468 50.2907 106.51C47.2261 106.636 44.1519 106.504 41.0836 106.57C38.4224 106.627 36.504 105.613 35.0299 103.338C31.738 98.2578 28.234 93.314 24.9492 88.2291C24.1731 87.0277 23.5955 85.5115 23.4958 84.1001C23.2807 81.0512 23.4642 77.976 23.427 74.9123C23.4019 72.8463 24.4018 71.9294 26.4218 71.9137C27.7044 71.9037 28.9986 71.8781 30.2662 71.7041C34.2232 71.1612 37.61 67.5917 37.6723 63.989C37.7421 59.9527 34.892 56.2758 30.62 55.9357C25.6761 55.5422 20.6767 55.8441 15.4306 55.8441C15.4306 56.4046 15.4306 57.1584 15.4306 57.9121C15.4306 72.664 15.4326 87.4158 15.4292 102.168C15.4283 105.957 14.8579 106.538 11.1343 106.553C8.49288 106.563 5.84971 106.611 3.21049 106.535C0.692607 106.462 0.0197941 105.793 0.0169438 103.3C-0.00529665 83.9155 -0.00554483 64.5314 0.0156232 45.1474C0.0185126 42.5065 0.490577 42.0588 3.2298 41.7551Z"
        fill="url(#paint0_linear_4_89)" />
    <path
        d="M115.685 97.4278C115.685 99.4842 115.712 101.338 115.678 103.19C115.632 105.788 114.995 106.416 112.363 106.55C111.936 106.571 111.506 106.557 111.078 106.557C97.5129 106.557 83.9479 106.559 70.3828 106.556C66.1772 106.555 65.6953 106.075 65.6951 101.919C65.6943 83.2464 65.6932 64.5737 65.696 45.9009C65.6965 42.1689 66.1682 41.6855 69.8661 41.6838C83.217 41.6775 96.5679 41.6774 109.919 41.6839C113.526 41.6857 114.028 42.1884 114.041 45.7193C114.049 47.6435 114.047 49.5679 114.041 51.4921C114.031 55.0153 113.534 55.5111 109.918 55.5143C101.065 55.5223 92.2123 55.5169 83.3593 55.5169C82.8001 55.5169 82.2408 55.5169 81.5468 55.5169C81.5468 59.1653 81.5468 62.6765 81.5468 66.3407C89.3957 66.3407 97.1627 66.3407 104.93 66.3407C110.615 66.3407 110.615 66.3407 110.615 71.9799C110.615 73.5478 110.643 75.1165 110.604 76.6835C110.547 78.9738 109.875 79.6843 107.449 79.7318C103.809 79.8032 100.167 79.7518 96.5257 79.752C91.5482 79.7523 86.5707 79.7521 81.5031 79.7521C81.5031 84.1121 81.5031 88.286 81.5031 92.7183C82.2766 92.7183 83.0327 92.7183 83.7887 92.7183C92.9273 92.7183 102.066 92.7173 111.204 92.7188C115.377 92.7195 115.672 93.0181 115.685 97.4278Z" />
    <path
        d="M115.685 97.4278C115.685 99.4842 115.712 101.338 115.678 103.19C115.632 105.788 114.995 106.416 112.363 106.55C111.936 106.571 111.506 106.557 111.078 106.557C97.5129 106.557 83.9479 106.559 70.3828 106.556C66.1772 106.555 65.6953 106.075 65.6951 101.919C65.6943 83.2464 65.6932 64.5737 65.696 45.9009C65.6965 42.1689 66.1682 41.6855 69.8661 41.6838C83.217 41.6775 96.5679 41.6774 109.919 41.6839C113.526 41.6857 114.028 42.1884 114.041 45.7193C114.049 47.6435 114.047 49.5679 114.041 51.4921C114.031 55.0153 113.534 55.5111 109.918 55.5143C101.065 55.5223 92.2123 55.5169 83.3593 55.5169C82.8001 55.5169 82.2408 55.5169 81.5468 55.5169C81.5468 59.1653 81.5468 62.6765 81.5468 66.3407C89.3957 66.3407 97.1627 66.3407 104.93 66.3407C110.615 66.3407 110.615 66.3407 110.615 71.9799C110.615 73.5478 110.643 75.1165 110.604 76.6835C110.547 78.9738 109.875 79.6843 107.449 79.7318C103.809 79.8032 100.167 79.7518 96.5257 79.752C91.5482 79.7523 86.5707 79.7521 81.5031 79.7521C81.5031 84.1121 81.5031 88.286 81.5031 92.7183C82.2766 92.7183 83.0327 92.7183 83.7887 92.7183C92.9273 92.7183 102.066 92.7173 111.204 92.7188C115.377 92.7195 115.672 93.0181 115.685 97.4278Z"
        fill="url(#paint1_linear_4_89)" />
    <path
        d="M150.071 41.6831C152.562 41.6834 154.847 41.7445 157.128 41.6671C159.461 41.5879 160.898 42.6964 161.683 44.7851C163.034 48.3809 164.371 51.982 165.7 55.586C171.558 71.4715 177.411 87.3584 183.263 103.246C184.192 105.769 183.724 106.502 181.04 106.542C177.973 106.589 174.904 106.531 171.836 106.554C169.709 106.57 168.364 105.624 167.689 103.585C166.821 100.963 165.853 98.3743 164.925 95.7622C156.843 95.7622 148.858 95.7622 140.754 95.7622C139.895 98.213 139.056 100.682 138.164 103.132C137.079 106.111 136.518 106.506 133.305 106.548C130.808 106.581 128.31 106.556 125.813 106.554C121.743 106.552 121.336 105.981 122.73 102.248C124.523 97.4494 126.319 92.6526 128.104 87.8517C133.286 73.9158 138.46 59.9769 143.644 46.0419C145.134 42.0381 145.63 41.7034 150.071 41.6831ZM146.176 81.9519C150.828 81.9519 155.48 81.9519 160.328 81.9519C157.837 74.6741 155.451 67.7065 152.908 60.2761C151.048 65.7627 149.366 70.6656 147.729 75.5838C147.039 77.6569 146.446 79.7622 146.176 81.9519Z" />
    <path
        d="M150.071 41.6831C152.562 41.6834 154.847 41.7445 157.128 41.6671C159.461 41.5879 160.898 42.6964 161.683 44.7851C163.034 48.3809 164.371 51.982 165.7 55.586C171.558 71.4715 177.411 87.3584 183.263 103.246C184.192 105.769 183.724 106.502 181.04 106.542C177.973 106.589 174.904 106.531 171.836 106.554C169.709 106.57 168.364 105.624 167.689 103.585C166.821 100.963 165.853 98.3743 164.925 95.7622C156.843 95.7622 148.858 95.7622 140.754 95.7622C139.895 98.213 139.056 100.682 138.164 103.132C137.079 106.111 136.518 106.506 133.305 106.548C130.808 106.581 128.31 106.556 125.813 106.554C121.743 106.552 121.336 105.981 122.73 102.248C124.523 97.4494 126.319 92.6526 128.104 87.8517C133.286 73.9158 138.46 59.9769 143.644 46.0419C145.134 42.0381 145.63 41.7034 150.071 41.6831ZM146.176 81.9519C150.828 81.9519 155.48 81.9519 160.328 81.9519C157.837 74.6741 155.451 67.7065 152.908 60.2761C151.048 65.7627 149.366 70.6656 147.729 75.5838C147.039 77.6569 146.446 79.7622 146.176 81.9519Z"
        fill="url(#paint2_linear_4_89)" />
    <path
        d="M192.218 77.2537C192.218 66.7056 192.214 56.3714 192.221 46.0372C192.223 42.0743 192.632 41.6814 196.642 41.6799C199.355 41.6789 202.069 41.7368 204.781 41.6704C206.791 41.6211 207.617 42.6847 207.773 44.4978C207.828 45.1349 207.8 45.7796 207.8 46.4209C207.801 61.7431 207.801 77.0654 207.801 92.7162C208.586 92.7162 209.332 92.7162 210.079 92.7162C218.432 92.7162 226.785 92.7094 235.139 92.7195C238.552 92.7237 239.065 93.2595 239.075 96.7246C239.081 98.9339 239.111 101.144 239.066 103.353C239.017 105.71 238.386 106.336 236.001 106.533C235.504 106.574 235.002 106.56 234.503 106.56C221.866 106.561 209.229 106.565 196.592 106.558C192.774 106.556 192.224 106.014 192.221 102.27C192.213 94.0023 192.218 85.735 192.218 77.2537Z" />
    <path
        d="M192.218 77.2537C192.218 66.7056 192.214 56.3714 192.221 46.0372C192.223 42.0743 192.632 41.6814 196.642 41.6799C199.355 41.6789 202.069 41.7368 204.781 41.6704C206.791 41.6211 207.617 42.6847 207.773 44.4978C207.828 45.1349 207.8 45.7796 207.8 46.4209C207.801 61.7431 207.801 77.0654 207.801 92.7162C208.586 92.7162 209.332 92.7162 210.079 92.7162C218.432 92.7162 226.785 92.7094 235.139 92.7195C238.552 92.7237 239.065 93.2595 239.075 96.7246C239.081 98.9339 239.111 101.144 239.066 103.353C239.017 105.71 238.386 106.336 236.001 106.533C235.504 106.574 235.002 106.56 234.503 106.56C221.866 106.561 209.229 106.565 196.592 106.558C192.774 106.556 192.224 106.014 192.221 102.27C192.213 94.0023 192.218 85.735 192.218 77.2537Z"
        fill="url(#paint3_linear_4_89)" />
    <path
        d="M219.039 12.6829C219.039 19.3753 218.988 25.8563 219.072 32.3356C219.095 34.1099 218.467 34.7517 216.731 34.7267C209.964 34.6295 211.029 35.4188 210.988 29.1195C210.934 20.6455 210.971 12.171 210.977 3.69672C210.979 1.04997 211.113 0.892482 213.74 0.908894C218.659 0.939625 223.591 0.80863 228.493 1.12399C234.226 1.49282 237.515 4.66055 238.516 10.1539C239.419 15.1115 237.02 19.8351 232.407 22.1897C232.221 22.2846 232.053 22.4144 231.671 22.6604C233.789 25.7629 235.917 28.8238 237.97 31.9335C238.403 32.5898 238.565 33.4253 238.851 34.1781C238.056 34.3556 237.259 34.6981 236.467 34.6846C229.373 34.5633 231.229 35.8958 226.978 29.6289C226.459 28.8635 226.049 27.9952 225.415 27.3421C222.828 24.6781 223.124 21.3631 223.33 18.117C223.365 17.5774 224.282 16.8974 224.934 16.6424C225.764 16.3172 226.779 16.4872 227.642 16.2155C229.662 15.5801 230.758 13.9281 230.577 12.0468C230.391 10.1197 229.059 8.55447 227.011 8.40626C224.463 8.22192 221.892 8.36206 219.039 8.36206C219.039 9.68597 219.039 11.0784 219.039 12.6829Z" />
    <path
        d="M219.039 12.6829C219.039 19.3753 218.988 25.8563 219.072 32.3356C219.095 34.1099 218.467 34.7517 216.731 34.7267C209.964 34.6295 211.029 35.4188 210.988 29.1195C210.934 20.6455 210.971 12.171 210.977 3.69672C210.979 1.04997 211.113 0.892482 213.74 0.908894C218.659 0.939625 223.591 0.80863 228.493 1.12399C234.226 1.49282 237.515 4.66055 238.516 10.1539C239.419 15.1115 237.02 19.8351 232.407 22.1897C232.221 22.2846 232.053 22.4144 231.671 22.6604C233.789 25.7629 235.917 28.8238 237.97 31.9335C238.403 32.5898 238.565 33.4253 238.851 34.1781C238.056 34.3556 237.259 34.6981 236.467 34.6846C229.373 34.5633 231.229 35.8958 226.978 29.6289C226.459 28.8635 226.049 27.9952 225.415 27.3421C222.828 24.6781 223.124 21.3631 223.33 18.117C223.365 17.5774 224.282 16.8974 224.934 16.6424C225.764 16.3172 226.779 16.4872 227.642 16.2155C229.662 15.5801 230.758 13.9281 230.577 12.0468C230.391 10.1197 229.059 8.55447 227.011 8.40626C224.463 8.22192 221.892 8.36206 219.039 8.36206C219.039 9.68597 219.039 11.0784 219.039 12.6829Z"
        fill="url(#paint4_linear_4_89)" />
    <path
        d="M126.499 32.6347C126.642 34.2639 125.836 34.7128 124.564 34.7118C117.14 34.7059 109.715 34.7031 102.291 34.7082C100.956 34.7091 100.381 34.0945 100.384 32.7425C100.408 22.766 100.409 12.7894 100.384 2.81286C100.38 1.4135 101.054 0.902054 102.345 0.902824C109.483 0.907072 116.622 0.907431 123.761 0.901003C125.082 0.899815 125.682 1.46281 125.654 2.84788C125.533 8.82286 126.472 8.16138 120.521 8.19387C116.61 8.21521 112.698 8.1979 108.671 8.1979C108.671 10.0867 108.671 11.7617 108.671 13.7283C112.578 13.7283 116.485 13.6718 120.388 13.7636C121.52 13.7903 123.513 14.0586 123.613 14.5313C123.983 16.2848 123.847 18.1857 123.603 19.9913C123.557 20.3337 122.157 20.6919 121.376 20.7049C117.174 20.7748 112.97 20.738 108.66 20.738C108.66 22.9962 108.66 25.0999 108.66 27.5619C110.124 27.5619 111.585 27.5619 113.047 27.562C116.616 27.562 120.191 27.6791 123.753 27.5187C125.928 27.4208 126.808 28.1389 126.514 30.3052C126.419 31.0049 126.499 31.7284 126.499 32.6347Z" />
    <path
        d="M126.499 32.6347C126.642 34.2639 125.836 34.7128 124.564 34.7118C117.14 34.7059 109.715 34.7031 102.291 34.7082C100.956 34.7091 100.381 34.0945 100.384 32.7425C100.408 22.766 100.409 12.7894 100.384 2.81286C100.38 1.4135 101.054 0.902054 102.345 0.902824C109.483 0.907072 116.622 0.907431 123.761 0.901003C125.082 0.899815 125.682 1.46281 125.654 2.84788C125.533 8.82286 126.472 8.16138 120.521 8.19387C116.61 8.21521 112.698 8.1979 108.671 8.1979C108.671 10.0867 108.671 11.7617 108.671 13.7283C112.578 13.7283 116.485 13.6718 120.388 13.7636C121.52 13.7903 123.513 14.0586 123.613 14.5313C123.983 16.2848 123.847 18.1857 123.603 19.9913C123.557 20.3337 122.157 20.6919 121.376 20.7049C117.174 20.7748 112.97 20.738 108.66 20.738C108.66 22.9962 108.66 25.0999 108.66 27.5619C110.124 27.5619 111.585 27.5619 113.047 27.562C116.616 27.562 120.191 27.6791 123.753 27.5187C125.928 27.4208 126.808 28.1389 126.514 30.3052C126.419 31.0049 126.499 31.7284 126.499 32.6347Z"
        fill="url(#paint5_linear_4_89)" />
    <path
        d="M70.4426 34.7072C66.9235 34.686 66.9225 34.686 66.9223 31.4137C66.9218 22.1571 66.92 12.9006 66.9236 3.64402C66.9246 1.04317 67.0509 0.853035 69.7235 0.921903C74.4872 1.04464 79.3109 0.852389 83.995 1.55349C90.3633 2.50666 93.8351 7.11909 93.8665 13.5334C93.8797 16.2391 93.763 18.9499 93.8888 21.6498C94.2433 29.2524 89.4099 33.5798 82.3939 34.4618C78.5279 34.9477 74.5632 34.651 70.4426 34.7072ZM85.75 22.5085C85.7538 20.9406 85.6809 19.3682 85.7736 17.8056C86.3601 7.91993 83.3999 7.87459 75.4891 8.08222C75.3734 8.08526 75.2615 8.23024 75.1261 8.324C75.1261 14.698 75.1261 21.0843 75.1261 27.6003C76.9058 27.6003 78.6131 27.7319 80.2928 27.5728C83.7121 27.2489 84.9833 26.0758 85.75 22.5085Z" />
    <path
        d="M70.4426 34.7072C66.9235 34.686 66.9225 34.686 66.9223 31.4137C66.9218 22.1571 66.92 12.9006 66.9236 3.64402C66.9246 1.04317 67.0509 0.853035 69.7235 0.921903C74.4872 1.04464 79.3109 0.852389 83.995 1.55349C90.3633 2.50666 93.8351 7.11909 93.8665 13.5334C93.8797 16.2391 93.763 18.9499 93.8888 21.6498C94.2433 29.2524 89.4099 33.5798 82.3939 34.4618C78.5279 34.9477 74.5632 34.651 70.4426 34.7072ZM85.75 22.5085C85.7538 20.9406 85.6809 19.3682 85.7736 17.8056C86.3601 7.91993 83.3999 7.87459 75.4891 8.08222C75.3734 8.08526 75.2615 8.23024 75.1261 8.324C75.1261 14.698 75.1261 21.0843 75.1261 27.6003C76.9058 27.6003 78.6131 27.7319 80.2928 27.5728C83.7121 27.2489 84.9833 26.0758 85.75 22.5085Z"
        fill="url(#paint6_linear_4_89)" />
    <path
        d="M192.531 0.22345C194.967 1.05415 197.386 1.57388 199.441 2.73453C202.875 4.67354 204.358 7.96409 204.414 11.8554C204.466 15.4892 204.434 19.1242 204.428 22.7587C204.417 29.4219 200.943 33.8861 194.305 34.9712C191.433 35.4408 188.269 35.3977 185.455 34.7042C179.659 33.2752 176.81 29.1141 176.755 23.0636C176.723 19.5007 176.732 15.9372 176.752 12.3741C176.786 6.47419 179.879 2.26614 185.589 0.821439C187.756 0.273203 190.091 0.387975 192.531 0.22345ZM187.597 27.6691C192.945 29.6643 196.311 27.3602 196.315 21.6975C196.317 18.6328 196.363 15.567 196.296 12.5037C196.225 9.21406 194.037 7.22762 190.599 7.20163C187.166 7.17566 184.914 9.13553 184.828 12.4273C184.736 15.9884 184.773 19.5543 184.823 23.1171C184.849 24.9978 185.526 26.5952 187.597 27.6691Z" />
    <path
        d="M192.531 0.22345C194.967 1.05415 197.386 1.57388 199.441 2.73453C202.875 4.67354 204.358 7.96409 204.414 11.8554C204.466 15.4892 204.434 19.1242 204.428 22.7587C204.417 29.4219 200.943 33.8861 194.305 34.9712C191.433 35.4408 188.269 35.3977 185.455 34.7042C179.659 33.2752 176.81 29.1141 176.755 23.0636C176.723 19.5007 176.732 15.9372 176.752 12.3741C176.786 6.47419 179.879 2.26614 185.589 0.821439C187.756 0.273203 190.091 0.387975 192.531 0.22345ZM187.597 27.6691C192.945 29.6643 196.311 27.3602 196.315 21.6975C196.317 18.6328 196.363 15.567 196.296 12.5037C196.225 9.21406 194.037 7.22762 190.599 7.20163C187.166 7.17566 184.914 9.13553 184.828 12.4273C184.736 15.9884 184.773 19.5543 184.823 23.1171C184.849 24.9978 185.526 26.5952 187.597 27.6691Z"
        fill="url(#paint7_linear_4_89)" />
    <path
        d="M60.3282 24.4326C59.8739 31.6766 53.2192 35.7286 46.0614 35.4167C43.5797 35.3086 40.9971 34.5609 38.7129 33.5417C34.8044 31.7979 32.8184 28.4625 32.708 24.193C32.5957 19.8492 32.6028 15.4984 32.7021 11.154C32.8059 6.6143 35.3282 3.52627 39.2597 1.67234C44.0269 -0.575628 48.9633 -0.546562 53.7351 1.69467C58.2354 3.80841 60.4005 7.51012 60.3758 12.4841C60.3564 16.4031 60.3554 20.3222 60.3282 24.4326ZM49.2302 7.72027C48.8161 7.61879 48.4059 7.49658 47.9873 7.41899C43.4485 6.57755 40.774 8.74403 40.7585 13.2828C40.7478 16.4189 40.737 19.5552 40.7623 22.6911C40.7911 26.2604 42.7589 28.279 46.2753 28.4026C49.8128 28.527 52.1645 26.4187 52.2504 22.8846C52.3317 19.5367 52.3011 16.1848 52.2562 12.8354C52.228 10.7287 51.5572 8.9149 49.2302 7.72027Z" />
    <path
        d="M60.3282 24.4326C59.8739 31.6766 53.2192 35.7286 46.0614 35.4167C43.5797 35.3086 40.9971 34.5609 38.7129 33.5417C34.8044 31.7979 32.8184 28.4625 32.708 24.193C32.5957 19.8492 32.6028 15.4984 32.7021 11.154C32.8059 6.6143 35.3282 3.52627 39.2597 1.67234C44.0269 -0.575628 48.9633 -0.546562 53.7351 1.69467C58.2354 3.80841 60.4005 7.51012 60.3758 12.4841C60.3564 16.4031 60.3554 20.3222 60.3282 24.4326ZM49.2302 7.72027C48.8161 7.61879 48.4059 7.49658 47.9873 7.41899C43.4485 6.57755 40.774 8.74403 40.7585 13.2828C40.7478 16.4189 40.737 19.5552 40.7623 22.6911C40.7911 26.2604 42.7589 28.279 46.2753 28.4026C49.8128 28.527 52.1645 26.4187 52.2504 22.8846C52.3317 19.5367 52.3011 16.1848 52.2562 12.8354C52.228 10.7287 51.5572 8.9149 49.2302 7.72027Z"
        fill="url(#paint8_linear_4_89)" />
    <path
        d="M23.2171 22.9354C27.3469 22.9359 28.0703 24.0465 26.6159 27.8466C24.8684 32.4127 19.0352 35.9174 13.3539 35.4223C10.8544 35.2044 8.26361 34.57 5.99296 33.5227C2.13054 31.7412 0.116633 28.4505 0.0608432 24.1322C0.0102046 20.2129 0.0367989 16.2925 0.0433231 12.3726C0.0527893 6.67828 2.63169 2.94388 8.04806 1.10416C13.4097 -0.716969 18.5939 -0.374515 23.3161 3.01094C25.4968 4.57441 26.7465 6.7621 27.1227 9.44518C27.3156 10.8216 26.8315 11.4775 25.3978 11.4016C24.5435 11.3563 23.6802 11.3368 22.8289 11.4054C21.1114 11.5439 19.821 11.3096 18.8052 9.51875C17.5828 7.36358 14.2677 6.74838 11.4509 7.66856C9.35335 8.35378 8.16665 10.168 8.14785 12.8392C8.12376 16.26 8.10308 19.6818 8.16065 23.1019C8.21134 26.1135 9.72805 27.774 12.5898 28.1279C16.4391 28.604 18.574 27.568 19.2575 24.5087C19.8284 21.9534 21.7013 23.2816 23.2171 22.9354Z" />
    <path
        d="M23.2171 22.9354C27.3469 22.9359 28.0703 24.0465 26.6159 27.8466C24.8684 32.4127 19.0352 35.9174 13.3539 35.4223C10.8544 35.2044 8.26361 34.57 5.99296 33.5227C2.13054 31.7412 0.116633 28.4505 0.0608432 24.1322C0.0102046 20.2129 0.0367989 16.2925 0.0433231 12.3726C0.0527893 6.67828 2.63169 2.94388 8.04806 1.10416C13.4097 -0.716969 18.5939 -0.374515 23.3161 3.01094C25.4968 4.57441 26.7465 6.7621 27.1227 9.44518C27.3156 10.8216 26.8315 11.4775 25.3978 11.4016C24.5435 11.3563 23.6802 11.3368 22.8289 11.4054C21.1114 11.5439 19.821 11.3096 18.8052 9.51875C17.5828 7.36358 14.2677 6.74838 11.4509 7.66856C9.35335 8.35378 8.16665 10.168 8.14785 12.8392C8.12376 16.26 8.10308 19.6818 8.16065 23.1019C8.21134 26.1135 9.72805 27.774 12.5898 28.1279C16.4391 28.604 18.574 27.568 19.2575 24.5087C19.8284 21.9534 21.7013 23.2816 23.2171 22.9354Z"
        fill="url(#paint9_linear_4_89)" />
    <path
        d="M160.311 0.900117C163.522 0.900587 166.521 0.951163 169.517 0.88208C171.221 0.842787 171.958 1.41912 171.913 3.23251C171.777 8.70351 172.526 8.00901 167.132 8.04316C163.14 8.06844 159.146 8.04813 154.979 8.04813C154.979 9.99471 154.979 11.8661 154.979 14.0198C158.825 14.0198 162.721 14.0173 166.616 14.0206C169.68 14.0233 169.729 14.0753 169.733 17.1294C169.739 21.1643 169.739 21.1644 165.615 21.1645C162.069 21.1646 158.524 21.1645 154.784 21.1645C154.784 25.7048 154.784 30.0253 154.784 34.6557C152.411 34.6557 150.217 34.7663 148.051 34.5729C147.55 34.5282 146.753 33.4482 146.748 32.8393C146.667 22.7944 146.699 12.7487 146.682 2.70316C146.679 1.06996 147.713 0.896515 148.963 0.898721C152.674 0.905286 156.385 0.900476 160.311 0.900117Z" />
    <path
        d="M160.311 0.900117C163.522 0.900587 166.521 0.951163 169.517 0.88208C171.221 0.842787 171.958 1.41912 171.913 3.23251C171.777 8.70351 172.526 8.00901 167.132 8.04316C163.14 8.06844 159.146 8.04813 154.979 8.04813C154.979 9.99471 154.979 11.8661 154.979 14.0198C158.825 14.0198 162.721 14.0173 166.616 14.0206C169.68 14.0233 169.729 14.0753 169.733 17.1294C169.739 21.1643 169.739 21.1644 165.615 21.1645C162.069 21.1646 158.524 21.1645 154.784 21.1645C154.784 25.7048 154.784 30.0253 154.784 34.6557C152.411 34.6557 150.217 34.7663 148.051 34.5729C147.55 34.5282 146.753 33.4482 146.748 32.8393C146.667 22.7944 146.699 12.7487 146.682 2.70316C146.679 1.06996 147.713 0.896515 148.963 0.898721C152.674 0.905286 156.385 0.900476 160.311 0.900117Z"
        fill="url(#paint10_linear_4_89)" />
    <defs>
        <linearGradient id="paint0_linear_4_89" x1="26.6669" y1="41.7462" x2="26.6669" y2="106.577"
            gradientUnits="userSpaceOnUse">
            <stop stop-color="#FF6AE7" />
            <stop offset="1" stop-color="#360095" />
        </linearGradient>
        <linearGradient id="paint1_linear_4_89" x1="90.6947" y1="41.679" x2="90.6947" y2="106.562"
            gradientUnits="userSpaceOnUse">
            <stop stop-color="#FF6AE7" />
            <stop offset="1" stop-color="#360095" />
        </linearGradient>
        <linearGradient id="paint2_linear_4_89" x1="152.853" y1="41.6631" x2="152.853" y2="106.565"
            gradientUnits="userSpaceOnUse">
            <stop stop-color="#FF6AE7" />
            <stop offset="1" stop-color="#360095" />
        </linearGradient>
        <linearGradient id="paint3_linear_4_89" x1="215.654" y1="41.6687" x2="215.654" y2="106.562"
            gradientUnits="userSpaceOnUse">
            <stop stop-color="#FF6AE7" />
            <stop offset="1" stop-color="#360095" />
        </linearGradient>
        <linearGradient id="paint4_linear_4_89" x1="224.9" y1="0.907043" x2="224.9" y2="34.7274"
            gradientUnits="userSpaceOnUse">
            <stop stop-color="#FF6AE7" />
            <stop offset="1" stop-color="#360095" />
        </linearGradient>
        <linearGradient id="paint5_linear_4_89" x1="113.476" y1="0.901001" x2="113.476" y2="34.7118"
            gradientUnits="userSpaceOnUse">
            <stop stop-color="#FF6AE7" />
            <stop offset="1" stop-color="#360095" />
        </linearGradient>
        <linearGradient id="paint6_linear_4_89" x1="80.4143" y1="0.911133" x2="80.4143" y2="34.7462"
            gradientUnits="userSpaceOnUse">
            <stop stop-color="#FF6AE7" />
            <stop offset="1" stop-color="#360095" />
        </linearGradient>
        <linearGradient id="paint7_linear_4_89" x1="190.589" y1="0.22345" x2="190.589" y2="35.2817"
            gradientUnits="userSpaceOnUse">
            <stop stop-color="#FF6AE7" />
            <stop offset="1" stop-color="#360095" />
        </linearGradient>
        <linearGradient id="paint8_linear_4_89" x1="46.5009" y1="0" x2="46.5009" y2="35.4335"
            gradientUnits="userSpaceOnUse">
            <stop stop-color="#FF6AE7" />
            <stop offset="1" stop-color="#360095" />
        </linearGradient>
        <linearGradient id="paint9_linear_4_89" x1="13.6673" y1="0.0128479" x2="13.6673" y2="35.469"
            gradientUnits="userSpaceOnUse">
            <stop stop-color="#FF6AE7" />
            <stop offset="1" stop-color="#360095" />
        </linearGradient>
        <linearGradient id="paint10_linear_4_89" x1="159.298" y1="0.880219" x2="159.298" y2="34.6872"
            gradientUnits="userSpaceOnUse">
            <stop stop-color="#FF6AE7" />
            <stop offset="1" stop-color="#360095" />
        </linearGradient>
    </defs>
</svg>