<svg width="124" height="114" viewBox="0 0 124 114" fill="none" xmlns="http://www.w3.org/2000/svg">
    <path
        d="M13.3715 90.316C13.7743 94.7074 16.7026 98.39 20.377 99.3049C24.8973 100.43 29.183 98.924 31.526 95.0808C34.8978 89.5498 38.091 83.9104 41.363 78.3187C41.6839 77.7703 42.0227 77.2322 42.5533 76.3605C43.3695 77.9795 44.2192 79.3046 44.7169 80.7504C45.2465 82.289 46.0937 82.7744 47.7012 82.7693C64.6183 82.7163 81.5357 82.7303 98.453 82.741C102.712 82.7437 105.357 84.3382 106.479 87.4999C107.832 91.3124 105.485 95.5625 101.514 96.3811C100.407 96.6093 99.253 96.6984 98.1202 96.6997C81.6312 96.7193 65.142 96.7581 48.6536 96.6603C46.4152 96.6471 45.2028 97.261 44.3351 99.3749C38.8248 112.8 21.7016 116.699 10.431 109.316C1.54471 103.495 -2.29121 92.0338 1.39153 81.4228C4.60546 72.1627 14.9607 65.5804 25.0021 66.5988C24.5346 67.471 24.1326 68.2752 23.6825 69.0517C20.9326 73.7944 18.028 78.4556 15.4823 83.3048C14.3938 85.3783 14.0457 87.8391 13.3715 90.316Z"
        fill="currentColor" />
    <path
        d="M121.188 80.3885C126.476 91.989 120.729 106.4 109.15 111.038C96.044 116.287 83.4466 109.686 79.0955 99.7021C85.7873 99.7021 92.4067 99.7285 99.0257 99.6938C104.265 99.6663 108.057 97.0665 109.396 92.6834C111.384 86.1778 106.739 79.8264 99.77 79.7015C93.7031 79.5928 87.6327 79.6769 81.5639 79.6758C80.7886 79.6757 80.0132 79.6758 78.7365 79.6758C79.7513 78.086 80.459 76.7153 81.4173 75.5498C82.3608 74.4024 82.4481 73.5051 81.6777 72.1803C73.4075 57.9591 65.2039 43.6993 56.982 29.4501C56.5548 28.7098 56.1061 27.9809 55.7024 27.2281C53.6831 23.4619 54.719 19.2411 58.111 17.3681C61.7178 15.3767 65.5477 16.4839 67.7754 20.2997C73.4847 30.0787 79.1351 39.8919 84.8148 49.6881C87.8512 54.925 90.9344 60.1354 93.9158 65.4034C94.5905 66.5955 95.3668 66.9232 96.68 66.7583C107.823 65.3589 116.173 69.989 121.188 80.3885Z"
        fill="currentColor" />
    <path
        d="M30.2895 91.3157C29.8879 92.0029 29.5871 92.5716 29.2254 93.0986C26.7658 96.6821 23.0448 97.6065 19.6006 95.5038C16.2532 93.4602 15.3044 89.7855 17.4222 86.0212C21.9594 77.9567 26.6125 69.957 31.2389 61.9427C35.2603 54.9763 39.271 48.0031 43.3805 41.0886C44.2036 39.7037 44.0944 38.8099 43.1204 37.548C35.4502 27.6105 36.8926 13.2406 46.6854 5.58172C53.8924 -0.054854 62.1288 -1.82267 70.7766 2.13776C79.2193 6.00422 83.9601 12.6715 84.7274 22.0694C85.1519 27.2679 83.6587 31.8514 80.8036 36.4325C80.339 35.7667 79.9614 35.298 79.6612 34.7841C76.4652 29.3138 73.3217 23.8124 70.0809 18.3688C67.7688 14.4852 64.2481 12.7742 59.7854 13.4393C55.8573 14.0247 53.1897 16.3779 51.9408 20.1383C50.9202 23.2112 51.4499 26.1618 53.0821 28.9484C56.1761 34.2308 59.2434 39.529 62.3149 44.8246C62.5931 45.3042 62.8212 45.8128 63.277 46.7104C61.5398 46.6213 60.0701 46.7008 58.6666 46.4337C57.006 46.1177 56.1135 46.6104 55.2606 48.0975C47.0091 62.4851 38.6737 76.8247 30.2895 91.3157Z"
        fill="currentColor" />
</svg>