<?xml version="1.0" standalone="no"?>
<!DOCTYPE svg PUBLIC "-//W3C//DTD SVG 20010904//EN"
 "http://www.w3.org/TR/2001/REC-SVG-20010904/DTD/svg10.dtd">
<svg version="1.0" xmlns="http://www.w3.org/2000/svg"
 width="576.000000pt" height="576.000000pt" viewBox="0 0 576.000000 576.000000"
 preserveAspectRatio="xMidYMid meet">
<metadata>
Created by potrace 1.14, written by Peter Selinger 2001-2017
</metadata>
<g transform="translate(0.000000,576.000000) scale(0.100000,-0.100000)"
fill="#000000" stroke="none">
<path d="M2754 5519 c-2 -3 -17 -5 -34 -4 -16 1 -30 -2 -30 -6 0 -4 -9 -6 -20
-4 -11 2 -22 0 -25 -5 -3 -5 -12 -7 -20 -3 -14 5 -20 -7 -16 -30 1 -5 -3 -6
-9 -2 -6 3 -8 10 -5 15 7 11 -55 -9 -74 -24 -12 -9 -13 -8 -6 4 6 11 3 10 -12
-3 -11 -9 -23 -14 -26 -10 -4 3 -7 1 -7 -6 0 -7 -4 -10 -9 -6 -5 3 -17 -3 -27
-12 -10 -10 -19 -17 -21 -15 -14 11 -23 -1 -12 -15 12 -16 12 -17 -2 -6 -12
10 -21 10 -42 0 -15 -6 -27 -15 -27 -19 0 -5 -7 -8 -15 -8 -8 0 -15 -4 -15
-10 0 -5 -7 -10 -15 -10 -8 0 -15 -7 -15 -16 0 -8 -4 -12 -10 -9 -19 11 -32
-6 -18 -23 10 -14 10 -15 -2 -4 -19 16 -33 15 -27 -2 4 -10 1 -13 -7 -10 -17
6 -128 -91 -176 -155 -14 -19 -33 -40 -42 -49 -13 -12 -15 -19 -6 -29 8 -10 7
-12 -3 -8 -10 4 -27 -16 -53 -61 -21 -37 -39 -73 -40 -79 -1 -7 -8 -20 -15
-29 -7 -9 -10 -16 -7 -16 4 0 0 -10 -8 -22 -9 -12 -16 -32 -16 -43 0 -12 -6
-27 -12 -34 -11 -11 -10 -14 1 -18 11 -4 11 -7 0 -13 -7 -5 -14 -14 -15 -22
-2 -7 -5 -23 -8 -35 -11 -51 -19 -154 -18 -233 1 -76 7 -165 12 -165 1 0 4
-16 6 -35 3 -19 8 -42 11 -50 3 -8 8 -24 10 -35 5 -33 64 -176 91 -225 14 -25
48 -78 76 -118 73 -106 69 -140 -34 -302 -12 -17 -232 -396 -265 -455 -13 -22
-80 -139 -150 -260 -70 -121 -136 -235 -146 -253 -76 -132 -102 -178 -151
-262 -174 -301 -328 -571 -328 -576 0 -3 -8 -18 -19 -32 -10 -15 -44 -74 -74
-132 -46 -87 -58 -117 -63 -172 -13 -135 53 -246 183 -310 145 -71 302 -28
406 112 14 19 66 105 115 190 49 85 182 317 297 515 114 198 218 378 230 400
13 22 96 166 185 320 90 154 177 305 194 336 114 203 215 374 238 402 27 31
31 32 100 31 40 0 109 -2 153 -4 94 -5 95 -3 39 93 -19 32 -34 62 -34 68 0 5
-4 9 -10 9 -5 0 -10 4 -10 9 0 6 -68 126 -151 268 -83 142 -165 281 -181 308
-16 28 -43 79 -60 115 -18 36 -35 67 -38 70 -5 5 -6 10 -8 56 -1 16 -6 23 -14
18 -7 -5 -8 -3 -3 6 9 14 11 87 3 95 -3 3 4 38 15 78 11 40 21 82 21 94 1 12
3 19 5 17 2 -2 11 6 20 19 9 12 13 22 11 22 -5 1 11 22 46 60 12 13 19 26 16
29 -3 3 2 6 11 6 10 0 17 5 17 10 0 6 11 15 25 22 13 6 22 15 19 19 -3 5 2 6
10 3 9 -3 16 -2 16 4 0 5 26 17 58 27 31 10 62 21 67 25 21 15 219 4 265 -14
25 -10 53 -18 62 -19 9 -1 14 -5 12 -9 -3 -4 0 -8 5 -8 17 0 131 -102 131
-117 0 -5 9 -16 20 -26 11 -9 20 -24 20 -32 0 -8 4 -15 8 -15 5 0 14 -16 22
-35 8 -19 16 -35 19 -35 3 0 17 -21 31 -47 13 -27 27 -50 31 -53 3 -3 12 -20
20 -37 8 -18 17 -33 21 -33 5 0 8 -6 8 -14 0 -8 6 -21 14 -28 7 -8 17 -24 20
-36 5 -13 12 -20 19 -16 7 4 9 4 5 -1 -4 -4 4 -27 17 -51 14 -24 37 -65 51
-91 14 -27 31 -53 38 -58 6 -6 12 -15 13 -20 1 -6 17 -37 36 -70 19 -33 43
-75 53 -94 23 -42 27 -48 57 -85 l23 -29 18 34 c9 19 25 48 34 64 25 41 80
177 86 209 2 14 7 29 10 34 3 5 7 22 10 38 3 16 8 45 12 64 11 58 12 214 1
228 -6 8 -6 12 2 12 7 0 9 4 6 10 -3 5 -8 31 -11 57 -5 54 -19 128 -24 128 -2
0 -11 36 -14 60 -2 11 -9 19 -15 17 -7 -1 -9 3 -5 9 8 14 -16 90 -27 83 -5 -3
-6 1 -3 9 3 8 -2 22 -11 31 -9 9 -14 16 -11 16 7 0 -51 107 -69 127 -24 29
-33 40 -50 66 -10 17 -24 26 -32 23 -8 -3 -11 -1 -8 5 9 14 -41 63 -56 53 -8
-5 -9 -3 -4 5 5 9 -6 25 -31 47 -22 18 -42 34 -46 34 -4 0 -13 6 -20 13 -26
27 -153 97 -165 93 -7 -3 -12 0 -10 6 1 7 -2 13 -8 13 -5 1 -18 5 -27 9 -9 4
-22 4 -29 0 -8 -4 -9 -3 -5 5 9 13 -32 31 -53 23 -10 -4 -12 -1 -6 8 6 10 2
12 -18 8 -15 -3 -24 -2 -22 3 3 4 1 10 -5 14 -5 3 -10 0 -10 -7 0 -10 -2 -10
-9 1 -5 8 -16 11 -25 8 -9 -4 -16 -2 -16 3 0 16 -42 23 -51 9 -7 -11 -9 -10
-9 4 0 9 -5 17 -11 17 -5 0 -8 -4 -4 -9 3 -5 1 -13 -5 -16 -6 -4 -10 -3 -9 2
3 20 -2 27 -11 13 -7 -11 -10 -11 -10 -2 0 7 -4 10 -10 7 -5 -3 -10 -2 -10 2
0 5 -9 9 -20 10 -11 1 -18 -2 -16 -6 3 -4 -1 -8 -9 -8 -8 0 -12 4 -9 8 2 4
-34 7 -82 6 -47 -1 -88 -5 -90 -8z m237 -36 c13 -16 12 -17 -3 -4 -10 7 -18
15 -18 17 0 8 8 3 21 -13z m-326 -3 c3 -5 1 -10 -4 -10 -6 0 -11 5 -11 10 0 6
2 10 4 10 3 0 8 -4 11 -10z m159 2 c3 -5 -1 -9 -9 -9 -8 0 -12 4 -9 9 3 4 7 8
9 8 2 0 6 -4 9 -8z m142 -17 c-1 -8 -8 -21 -16 -28 -10 -10 -11 -9 -4 3 5 8 9
18 10 23 3 14 4 17 8 17 2 0 3 -7 2 -15z m49 -5 c-3 -5 -12 -10 -18 -10 -7 0
-6 4 3 10 19 12 23 12 15 0z m31 -5 c-1 -8 -5 -17 -8 -21 -5 -4 -4 16 1 34 3
9 9 -1 7 -13z m159 -33 c-3 -3 1 -12 8 -21 11 -14 10 -14 -6 -2 -9 8 -15 16
-12 19 3 3 -1 12 -8 21 -11 14 -10 14 6 2 9 -8 15 -16 12 -19z m50 -2 c3 -6
-1 -7 -9 -4 -18 7 -21 14 -7 14 6 0 13 -4 16 -10z m-765 -24 c-7 -7 -13 -7
-20 0 -6 6 -3 10 10 10 13 0 16 -4 10 -10z m414 6 c2 -4 -5 -9 -17 -9 -17 -2
-19 0 -7 7 18 12 18 12 24 2z m-374 -26 c0 -2 -8 -10 -17 -17 -16 -13 -17 -12
-4 4 13 16 21 21 21 13z m80 0 c0 -2 -8 -10 -17 -17 -16 -13 -17 -12 -4 4 13
16 21 21 21 13z m681 -13 c13 -16 12 -17 -3 -4 -10 7 -18 15 -18 17 0 8 8 3
21 -13z m35 2 c-1 -8 -5 -17 -8 -21 -5 -4 -4 16 1 34 3 9 9 -1 7 -13z m-245
-18 c-10 -9 -11 -8 -5 6 3 10 9 15 12 12 3 -3 0 -11 -7 -18z m44 13 c3 -5 1
-10 -4 -10 -6 0 -11 5 -11 10 0 6 2 10 4 10 3 0 8 -4 11 -10z m236 -7 c13 -16
12 -17 -3 -4 -10 7 -18 15 -18 17 0 8 8 3 21 -13z m-840 -40 c13 -16 12 -17
-3 -4 -17 13 -22 21 -14 21 2 0 10 -8 17 -17z m429 -7 c0 -3 -4 -8 -10 -11 -5
-3 -10 -1 -10 4 0 6 5 11 10 11 6 0 10 -2 10 -4z m240 0 c0 -3 -4 -8 -10 -11
-5 -3 -10 -1 -10 4 0 6 5 11 10 11 6 0 10 -2 10 -4z m178 -31 c-3 -3 -9 2 -12
12 -6 14 -5 15 5 6 7 -7 10 -15 7 -18z m38 5 c0 -12 -4 -16 -9 -11 -5 5 -6 14
-3 20 10 15 12 14 12 -9z m80 0 c0 -12 -4 -16 -9 -11 -5 5 -6 14 -3 20 10 15
12 14 12 -9z m-636 0 c0 -5 -5 -10 -11 -10 -5 0 -7 5 -4 10 3 6 8 10 11 10 2
0 4 -4 4 -10z m600 -2 c0 -4 -4 -8 -9 -8 -6 0 -12 4 -15 8 -3 5 1 9 9 9 8 0
15 -4 15 -9z m95 -7 c3 -5 2 -12 -3 -15 -5 -3 -9 1 -9 9 0 17 3 19 12 6z
m-475 -5 c0 -3 -4 -8 -10 -11 -5 -3 -10 -1 -10 4 0 6 5 11 10 11 6 0 10 -2 10
-4z m80 -6 c0 -5 -2 -10 -4 -10 -3 0 -8 5 -11 10 -3 6 -1 10 4 10 6 0 11 -4
11 -10z m40 6 c0 -3 -4 -8 -10 -11 -5 -3 -10 -1 -10 4 0 6 5 11 10 11 6 0 10
-2 10 -4z m-580 -26 c0 -5 -2 -10 -4 -10 -3 0 -8 5 -11 10 -3 6 -1 10 4 10 6
0 11 -4 11 -10z m120 0 c0 -5 -4 -10 -10 -10 -5 0 -10 5 -10 10 0 6 5 10 10
10 6 0 10 -4 10 -10z m40 0 c0 -5 -2 -10 -4 -10 -3 0 -8 5 -11 10 -3 6 -1 10
4 10 6 0 11 -4 11 -10z m40 6 c0 -3 -4 -8 -10 -11 -5 -3 -10 -1 -10 4 0 6 5
11 10 11 6 0 10 -2 10 -4z m40 0 c0 -3 -4 -8 -10 -11 -5 -3 -10 -1 -10 4 0 6
5 11 10 11 6 0 10 -2 10 -4z m220 -26 c0 -5 -2 -10 -4 -10 -3 0 -8 5 -11 10
-3 6 -1 10 4 10 6 0 11 -4 11 -10z m40 0 c0 -5 -2 -10 -4 -10 -3 0 -8 5 -11
10 -3 6 -1 10 4 10 6 0 11 -4 11 -10z m35 0 c3 -5 1 -10 -4 -10 -6 0 -11 5
-11 10 0 6 2 10 4 10 3 0 8 -4 11 -10z m45 6 c0 -3 -4 -8 -10 -11 -5 -3 -10
-1 -10 4 0 6 5 11 10 11 6 0 10 -2 10 -4z m360 -6 c0 -5 -2 -10 -4 -10 -3 0
-8 5 -11 10 -3 6 -1 10 4 10 6 0 11 -4 11 -10z m40 0 c0 -5 -2 -10 -4 -10 -3
0 -8 5 -11 10 -3 6 -1 10 4 10 6 0 11 -4 11 -10z m-1063 -25 c0 -8 -4 -12 -9
-9 -5 3 -6 10 -3 15 9 13 12 11 12 -6z m328 5 c3 -6 -1 -7 -9 -4 -18 7 -21 14
-7 14 6 0 13 -4 16 -10z m590 1 c3 -5 2 -12 -3 -15 -5 -3 -9 1 -9 9 0 17 3 19
12 6z m45 5 c0 -3 -4 -8 -10 -11 -5 -3 -10 -1 -10 4 0 6 5 11 10 11 6 0 10 -2
10 -4z m-343 -21 c0 -8 -4 -12 -9 -9 -5 3 -6 10 -3 15 9 13 12 11 12 -6z
m-837 -5 c0 -5 -2 -10 -4 -10 -3 0 -8 5 -11 10 -3 6 -1 10 4 10 6 0 11 -4 11
-10z m680 0 c0 -5 -2 -10 -4 -10 -3 0 -8 5 -11 10 -3 6 -1 10 4 10 6 0 11 -4
11 -10z m115 1 c3 -5 2 -12 -3 -15 -5 -3 -9 1 -9 9 0 17 3 19 12 6z m103 -26
c-3 -3 -9 2 -12 12 -6 14 -5 15 5 6 7 -7 10 -15 7 -18z m-1025 0 c4 -8 3 -16
-1 -19 -4 -3 -9 4 -9 15 -2 23 3 25 10 4z m243 -11 c1 -9 0 -13 -4 -10 -3 4
-7 14 -8 22 -1 9 0 13 4 10 3 -4 7 -14 8 -22z m121 7 c0 -11 -5 -18 -9 -15 -4
3 -5 11 -1 19 7 21 12 19 10 -4z m43 -5 c0 -3 -4 -8 -10 -11 -5 -3 -10 -1 -10
4 0 6 5 11 10 11 6 0 10 -2 10 -4z m120 0 c0 -3 -4 -8 -10 -11 -5 -3 -10 -1
-10 4 0 6 5 11 10 11 6 0 10 -2 10 -4z m56 -8 c3 -4 -1 -5 -10 -4 -8 1 -18 5
-22 8 -3 4 1 5 10 4 8 -1 18 -5 22 -8z m114 6 c0 -8 -19 -13 -24 -6 -3 5 1 9
9 9 8 0 15 -2 15 -3z m27 -9 c0 -8 -4 -12 -9 -9 -5 3 -6 10 -3 15 9 13 12 11
12 -6z m218 6 c-9 -8 -36 -10 -30 -2 2 4 11 8 20 8 8 0 13 -3 10 -6z m180 0
c-9 -8 -36 -10 -30 -2 2 4 11 8 20 8 8 0 13 -3 10 -6z m125 5 c0 -3 -4 -8 -10
-11 -5 -3 -10 -1 -10 4 0 6 5 11 10 11 6 0 10 -2 10 -4z m80 -6 c0 -5 -5 -10
-11 -10 -5 0 -7 5 -4 10 3 6 8 10 11 10 2 0 4 -4 4 -10z m120 0 c0 -5 -5 -10
-11 -10 -5 0 -7 5 -4 10 3 6 8 10 11 10 2 0 4 -4 4 -10z m-559 -23 c-6 -8 -7
-18 -3 -22 4 -5 1 -5 -6 -1 -10 6 -10 11 -1 22 6 8 14 14 16 14 3 0 0 -6 -6
-13z m272 -2 c4 -8 3 -16 -1 -19 -4 -3 -9 4 -9 15 -2 23 3 25 10 4z m244 -4
c0 -11 -5 -18 -9 -15 -4 3 -5 11 -1 19 7 21 12 19 10 -4z m118 0 c3 -5 2 -12
-3 -15 -5 -3 -9 1 -9 9 0 17 3 19 12 6z m-1599 -27 c1 -9 0 -13 -4 -10 -3 4
-7 14 -8 22 -1 9 0 13 4 10 3 -4 7 -14 8 -22z m240 0 c1 -9 0 -13 -4 -10 -3 4
-7 14 -8 22 -1 9 0 13 4 10 3 -4 7 -14 8 -22z m80 0 c1 -9 0 -13 -4 -10 -3 4
-7 14 -8 22 -1 9 0 13 4 10 3 -4 7 -14 8 -22z m260 14 c3 -4 -1 -5 -10 -4 -8
1 -18 5 -22 8 -3 4 1 5 10 4 8 -1 18 -5 22 -8z m119 3 c-9 -8 -36 -10 -30 -2
2 4 11 8 20 8 8 0 13 -3 10 -6z m120 0 c-9 -8 -36 -10 -30 -2 2 4 11 8 20 8 8
0 13 -3 10 -6z m240 0 c-9 -8 -36 -10 -30 -2 2 4 11 8 20 8 8 0 13 -3 10 -6z
m99 -3 c-3 -4 -11 -5 -19 -1 -21 7 -19 12 4 10 11 0 18 -5 15 -9z m242 0 c3
-4 -1 -5 -10 -4 -8 1 -18 5 -22 8 -3 4 1 5 10 4 8 -1 18 -5 22 -8z m-516 -18
c0 -5 -5 -10 -11 -10 -5 0 -7 5 -4 10 3 6 8 10 11 10 2 0 4 -4 4 -10z m435 0
c3 -5 1 -10 -4 -10 -6 0 -11 5 -11 10 0 6 2 10 4 10 3 0 8 -4 11 -10z m-1235
-16 c0 -8 -19 -13 -24 -6 -3 5 1 9 9 9 8 0 15 -2 15 -3z m51 -17 c-10 -9 -11
-8 -5 6 3 10 9 15 12 12 3 -3 0 -11 -7 -18z m73 15 c3 -5 -1 -9 -9 -9 -8 0
-12 4 -9 9 3 4 7 8 9 8 2 0 6 -4 9 -8z m196 2 c0 -8 -19 -13 -24 -6 -3 5 1 9
9 9 8 0 15 -2 15 -3z m44 -2 c3 -5 -1 -9 -9 -9 -8 0 -12 4 -9 9 3 4 7 8 9 8 2
0 6 -4 9 -8z m56 -2 c0 -5 -2 -10 -4 -10 -3 0 -8 5 -11 10 -3 6 -1 10 4 10 6
0 11 -4 11 -10z m240 0 c0 -5 -2 -10 -4 -10 -3 0 -8 5 -11 10 -3 6 -1 10 4 10
6 0 11 -4 11 -10z m737 -5 c0 -8 -4 -12 -9 -9 -5 3 -6 10 -3 15 9 13 12 11 12
-6z m118 6 c3 -5 2 -12 -3 -15 -5 -3 -9 1 -9 9 0 17 3 19 12 6z m-1640 -21 c3
-5 1 -10 -4 -10 -6 0 -11 5 -11 10 0 6 2 10 4 10 3 0 8 -4 11 -10z m320 0 c3
-5 1 -10 -4 -10 -6 0 -11 5 -11 10 0 6 2 10 4 10 3 0 8 -4 11 -10z m50 0 c-3
-5 -12 -10 -18 -10 -7 0 -6 4 3 10 19 12 23 12 15 0z m-330 -9 c3 -5 2 -12 -3
-15 -5 -3 -9 1 -9 9 0 17 3 19 12 6z m185 -11 c0 -5 -5 -10 -11 -10 -5 0 -7 5
-4 10 3 6 8 10 11 10 2 0 4 -4 4 -10z m1275 0 c3 -5 1 -10 -4 -10 -6 0 -11 5
-11 10 0 6 2 10 4 10 3 0 8 -4 11 -10z m98 -15 c-7 -21 -12 -19 -10 4 0 11 5
18 9 15 4 -3 5 -11 1 -19z m-1420 0 c-3 -9 -8 -14 -10 -11 -3 3 -2 9 2 15 9
16 15 13 8 -4z m382 -13 c-3 -3 -11 0 -18 7 -9 10 -8 11 6 5 10 -3 15 -9 12
-12z m479 10 c3 -5 -1 -9 -9 -9 -8 0 -12 4 -9 9 3 4 7 8 9 8 2 0 6 -4 9 -8z
m210 0 c3 -5 -1 -9 -9 -9 -8 0 -12 4 -9 9 3 4 7 8 9 8 2 0 6 -4 9 -8z m-1186
-27 c-3 -3 -9 2 -12 12 -6 14 -5 15 5 6 7 -7 10 -15 7 -18z m320 0 c-3 -3 -9
2 -12 12 -6 14 -5 15 5 6 7 -7 10 -15 7 -18z m400 0 c-3 -3 -9 2 -12 12 -6 14
-5 15 5 6 7 -7 10 -15 7 -18z m622 -13 c0 -5 -7 -9 -15 -9 -8 0 -12 4 -9 9 3
4 9 8 15 8 5 0 9 -4 9 -8z m54 -8 c3 -8 2 -12 -4 -9 -6 3 -10 10 -10 16 0 14
7 11 14 -7z m-1519 -13 c3 -5 2 -12 -3 -15 -5 -3 -9 1 -9 9 0 17 3 19 12 6z
m956 -14 c-10 -9 -11 -8 -5 6 3 10 9 15 12 12 3 -3 0 -11 -7 -18z m-631 -41
c0 -3 -4 -8 -10 -11 -5 -3 -10 -1 -10 4 0 6 5 11 10 11 6 0 10 -2 10 -4z
m1555 -254 c-3 -3 -11 0 -18 7 -9 10 -8 11 6 5 10 -3 15 -9 12 -12z m-75 -32
c0 -5 -2 -10 -4 -10 -3 0 -8 5 -11 10 -3 6 -1 10 4 10 6 0 11 -4 11 -10z
m-1563 -75 c0 -8 -4 -12 -9 -9 -5 3 -6 10 -3 15 9 13 12 11 12 -6z"/>
<path d="M2858 4765 c-3 -3 -18 -7 -34 -9 -41 -6 -84 -24 -84 -35 0 -6 -6 -8
-13 -5 -7 2 -24 -5 -38 -16 -55 -47 -84 -77 -87 -91 -2 -7 -8 -17 -14 -20 -5
-3 -9 -8 -8 -10 1 -2 -4 -17 -10 -34 -17 -43 -20 -95 -7 -95 8 0 9 -3 2 -8
-13 -8 -18 -55 -6 -47 5 2 9 -1 8 -8 -1 -44 5 -78 18 -90 8 -8 12 -17 9 -20
-3 -3 3 -18 13 -34 10 -15 24 -37 30 -48 6 -11 16 -19 21 -18 5 1 8 -5 5 -15
-2 -9 5 -27 16 -38 11 -12 17 -25 14 -28 -4 -3 -1 -6 5 -6 7 0 11 -3 10 -7 -3
-16 15 -43 25 -36 5 3 7 1 3 -5 -3 -6 7 -34 24 -62 16 -28 30 -55 30 -60 0 -6
4 -10 8 -10 5 0 23 -29 42 -65 19 -36 37 -65 42 -65 4 0 7 -3 6 -7 -4 -12 68
-134 74 -127 3 3 5 -3 5 -13 -1 -10 4 -17 11 -15 8 1 10 -2 7 -8 -4 -6 5 -29
19 -50 14 -22 26 -42 26 -44 0 -3 23 -43 50 -90 28 -47 50 -89 50 -95 0 -6 5
-11 10 -11 6 0 10 -6 10 -14 0 -7 9 -25 21 -40 11 -14 18 -26 14 -26 -4 0 1
-7 9 -16 9 -8 16 -22 16 -30 0 -8 5 -14 10 -14 6 0 10 -4 10 -10 0 -5 13 -31
29 -58 15 -26 39 -68 53 -93 14 -24 58 -100 98 -169 40 -69 81 -140 91 -157
10 -18 88 -153 173 -300 85 -148 157 -281 160 -297 6 -34 2 -42 -80 -166 -34
-52 -64 -102 -66 -110 -3 -12 65 -14 507 -15 563 -2 578 -3 696 -66 107 -57
208 -194 226 -305 18 -119 5 -215 -43 -311 -43 -86 -114 -157 -194 -196 -112
-54 -125 -55 -662 -56 -274 -1 -504 -4 -512 -7 -11 -4 -7 -17 19 -64 57 -100
96 -152 174 -230 86 -86 105 -101 181 -150 115 -74 257 -129 401 -154 105 -19
336 -14 407 8 11 4 31 9 44 11 37 7 174 54 205 70 15 8 31 15 35 15 4 0 46 26
95 58 148 98 278 245 358 402 33 65 98 240 90 240 -2 0 0 11 5 25 24 63 34
315 17 410 -50 276 -219 559 -427 714 -19 14 -37 28 -40 31 -31 32 -222 116
-305 135 -44 10 -95 21 -113 26 -19 4 -119 6 -223 4 l-189 -4 -27 28 c-16 15
-37 45 -49 67 -34 64 -71 130 -97 171 -13 21 -36 59 -50 86 -15 26 -39 68 -54
95 -27 48 -59 103 -80 137 -7 11 -25 43 -41 70 -76 133 -116 200 -121 205 -3
3 -17 27 -31 55 -14 27 -33 58 -42 67 -10 10 -16 18 -13 18 3 0 -1 14 -10 30
-9 17 -20 30 -26 30 -6 0 -8 4 -5 9 3 5 -5 24 -18 43 -13 19 -25 39 -27 44
-19 46 -64 112 -72 107 -6 -3 -7 -1 -3 6 4 6 -2 24 -13 40 -12 16 -21 31 -21
34 0 13 -78 136 -84 132 -3 -3 -4 -2 -1 1 5 7 -59 128 -82 155 -7 9 -10 19 -6
22 3 4 1 7 -5 7 -7 0 -12 4 -12 10 0 5 -15 33 -33 62 -19 29 -37 60 -41 68
-27 56 -54 99 -59 93 -4 -3 -7 2 -7 11 0 10 -8 30 -18 44 -10 15 -22 35 -25
46 -6 16 -10 16 -25 5 -15 -12 -16 -12 -4 2 10 13 10 21 -1 43 -8 14 -17 23
-20 19 -4 -3 -7 2 -7 13 0 10 -9 30 -20 44 -11 14 -20 31 -20 38 0 6 -4 12
-10 12 -5 0 -10 6 -10 13 -1 16 -35 57 -49 57 -6 0 -10 4 -8 9 1 5 -11 20 -28
35 -21 18 -31 22 -37 13 -5 -8 -8 -6 -8 6 0 19 -26 32 -82 40 -20 2 -41 8 -47
11 -6 4 -11 1 -11 -6 0 -10 -2 -10 -8 0 -5 7 -11 10 -14 7z m133 -42 c13 -16
12 -17 -3 -4 -17 13 -22 21 -14 21 2 0 10 -8 17 -17z m16 -68 c0 -8 -4 -12 -9
-9 -5 3 -6 10 -3 15 9 13 12 11 12 -6z m-360 -30 c0 -8 -4 -12 -9 -9 -5 3 -6
10 -3 15 9 13 12 11 12 -6z m443 -9 c0 -2 -6 -9 -14 -15 -11 -9 -16 -9 -22 0
-4 7 -3 9 4 5 6 -3 13 -2 17 4 6 10 15 14 15 6z m-276 -14 c2 -4 -4 -8 -14 -8
-10 0 -16 4 -14 8 3 4 9 8 14 8 5 0 11 -4 14 -8z m166 2 c0 -8 -19 -13 -24 -6
-3 5 1 9 9 9 8 0 15 -2 15 -3z m-245 -24 c-3 -5 -12 -10 -18 -10 -7 0 -6 4 3
10 19 12 23 12 15 0z m346 -27 c13 -16 12 -17 -3 -4 -17 13 -22 21 -14 21 2 0
10 -8 17 -17z m69 -53 c0 -5 -2 -10 -4 -10 -3 0 -8 5 -11 10 -3 6 -1 10 4 10
6 0 11 -4 11 -10z m40 6 c0 -3 -4 -8 -10 -11 -5 -3 -10 -1 -10 4 0 6 5 11 10
11 6 0 10 -2 10 -4z m-259 -23 c13 -16 12 -17 -3 -4 -17 13 -22 21 -14 21 2 0
10 -8 17 -17z m156 2 c0 -8 -4 -15 -9 -15 -10 0 -11 14 -1 23 9 10 10 9 10 -8z
m-347 -1 c0 -8 -19 -13 -24 -6 -3 5 1 9 9 9 8 0 15 -2 15 -3z m35 -4 c-3 -5
-12 -10 -18 -10 -7 0 -6 4 3 10 19 12 23 12 15 0z m-110 -20 c3 -5 1 -10 -4
-10 -6 0 -11 5 -11 10 0 6 2 10 4 10 3 0 8 -4 11 -10z m40 0 c3 -5 1 -10 -4
-10 -6 0 -11 5 -11 10 0 6 2 10 4 10 3 0 8 -4 11 -10z m285 0 c0 -5 -5 -10
-11 -10 -5 0 -7 5 -4 10 3 6 8 10 11 10 2 0 4 -4 4 -10z m40 0 c0 -5 -5 -10
-11 -10 -5 0 -7 5 -4 10 3 6 8 10 11 10 2 0 4 -4 4 -10z m-423 -25 c0 -8 -4
-12 -9 -9 -5 3 -6 10 -3 15 9 13 12 11 12 -6z m158 5 c3 -5 1 -10 -4 -10 -6 0
-11 5 -11 10 0 6 2 10 4 10 3 0 8 -4 11 -10z m325 0 c0 -5 -5 -10 -11 -10 -5
0 -7 5 -4 10 3 6 8 10 11 10 2 0 4 -4 4 -10z m-380 -20 c0 -5 -5 -10 -11 -10
-5 0 -7 5 -4 10 3 6 8 10 11 10 2 0 4 -4 4 -10z m275 0 c3 -5 1 -10 -4 -10 -6
0 -11 5 -11 10 0 6 2 10 4 10 3 0 8 -4 11 -10z m205 0 c0 -5 -2 -10 -4 -10 -3
0 -8 5 -11 10 -3 6 -1 10 4 10 6 0 11 -4 11 -10z m-5 -29 c3 -5 2 -12 -3 -15
-5 -3 -9 1 -9 9 0 17 3 19 12 6z m-400 -11 c3 -5 1 -10 -4 -10 -6 0 -11 5 -11
10 0 6 2 10 4 10 3 0 8 -4 11 -10z m85 6 c0 -3 -4 -8 -10 -11 -5 -3 -10 -1
-10 4 0 6 5 11 10 11 6 0 10 -2 10 -4z m234 -8 c-3 -4 -11 -5 -19 -1 -21 7
-19 12 4 10 11 0 18 -5 15 -9z m150 4 c3 -5 -1 -9 -9 -9 -8 0 -12 4 -9 9 3 4
7 8 9 8 2 0 6 -4 9 -8z m-628 -44 c3 -4 -1 -5 -10 -4 -8 1 -18 5 -22 8 -3 4 1
5 10 4 8 -1 18 -5 22 -8z m81 -3 c0 -8 -4 -12 -9 -9 -5 3 -6 10 -3 15 9 13 12
11 12 -6z m159 -11 c1 -9 0 -13 -4 -10 -3 4 -7 14 -8 22 -1 9 0 13 4 10 3 -4
7 -14 8 -22z m80 14 c3 -4 -1 -5 -10 -4 -8 1 -18 5 -22 8 -3 4 1 5 10 4 8 -1
18 -5 22 -8z m81 -3 c0 -8 -4 -12 -9 -9 -5 3 -6 10 -3 15 9 13 12 11 12 -6z
m159 -11 c1 -9 0 -13 -4 -10 -3 4 -7 14 -8 22 -1 9 0 13 4 10 3 -4 7 -14 8
-22z m-401 -12 c-3 -3 -11 0 -18 7 -9 10 -8 11 6 5 10 -3 15 -9 12 -12z m314
4 c9 -11 9 -16 -1 -22 -7 -4 -10 -4 -6 1 4 4 3 14 -3 22 -6 7 -9 13 -6 13 2 0
10 -6 16 -14z m-454 -15 c-9 -8 -36 -10 -30 -2 2 4 11 8 20 8 8 0 13 -3 10 -6z
m315 3 c0 -8 -19 -13 -24 -6 -3 5 1 9 9 9 8 0 15 -2 15 -3z m65 -3 c-9 -8 -36
-10 -30 -2 2 4 11 8 20 8 8 0 13 -3 10 -6z m205 3 c0 -8 -19 -13 -24 -6 -3 5
1 9 9 9 8 0 15 -2 15 -3z m-140 -38 c0 -3 -4 -8 -10 -11 -5 -3 -10 -1 -10 4 0
6 5 11 10 11 6 0 10 -2 10 -4z m-83 -51 c0 -8 -4 -12 -9 -9 -5 3 -6 10 -3 15
9 13 12 11 12 -6z m-293 -53 c3 -5 -1 -9 -9 -9 -8 0 -12 4 -9 9 3 4 7 8 9 8 2
0 6 -4 9 -8z m136 -38 c0 -8 -19 -13 -24 -6 -3 5 1 9 9 9 8 0 15 -2 15 -3z
m330 0 c0 -8 -19 -13 -24 -6 -3 5 1 9 9 9 8 0 15 -2 15 -3z m116 -246 c3 -4
-1 -5 -10 -4 -8 1 -18 5 -22 8 -3 4 1 5 10 4 8 -1 18 -5 22 -8z"/>
<path d="M943 2412 c-24 -2 -43 -6 -43 -10 0 -5 -12 -8 -27 -9 -29 0 -57 -6
-83 -16 -8 -3 -33 -11 -55 -18 -22 -6 -45 -15 -51 -20 -6 -5 -14 -6 -17 -2 -4
3 -7 0 -7 -7 0 -7 -3 -11 -6 -7 -4 3 -34 -8 -67 -24 -46 -24 -57 -33 -46 -41
10 -7 8 -8 -7 -3 -15 4 -32 -3 -53 -21 -17 -14 -31 -23 -31 -20 0 6 -30 -17
-66 -51 -13 -13 -26 -23 -29 -23 -12 0 -34 -28 -28 -34 4 -3 2 -6 -4 -6 -27 0
-139 -139 -196 -242 -175 -316 -166 -755 21 -1076 63 -108 82 -133 177 -228
119 -120 242 -197 397 -250 77 -26 90 -29 208 -48 111 -17 301 -9 410 19 37
10 98 27 110 32 8 3 21 7 28 9 35 7 205 100 262 143 59 44 153 137 205 202 26
32 107 175 125 219 20 50 50 88 85 107 28 16 129 17 1275 19 1132 1 1251 3
1310 18 138 36 230 138 246 273 21 180 -106 331 -301 358 -27 3 -604 6 -1281
6 l-1232 -1 -32 23 c-23 16 -42 45 -66 102 -19 44 -39 82 -44 83 -6 2 -8 8 -4
13 3 5 0 9 -5 9 -6 0 -10 3 -9 8 1 4 -5 19 -12 35 l-13 27 -26 -42 c-14 -24
-25 -46 -23 -50 1 -5 -3 -8 -8 -8 -6 0 -10 -5 -10 -11 0 -6 -9 -22 -20 -36
-11 -14 -17 -29 -14 -34 3 -5 1 -9 -5 -9 -5 0 -16 -12 -24 -27 -8 -16 -38 -68
-67 -118 -29 -49 -61 -106 -72 -125 -11 -19 -24 -39 -28 -45 -4 -5 -19 -30
-33 -55 -71 -128 -82 -145 -89 -148 -4 -2 -8 -8 -8 -13 0 -18 -113 -194 -149
-233 -134 -143 -368 -177 -548 -80 -35 18 -76 48 -93 66 -100 109 -158 261
-136 355 40 174 74 267 137 375 15 25 25 48 23 51 -2 2 2 10 11 17 8 7 15 19
15 26 0 8 4 14 9 14 7 0 21 33 20 48 0 1 7 10 16 18 8 9 13 20 10 25 -4 5 -2
9 4 9 13 0 63 91 57 106 -3 8 0 11 8 8 8 -3 16 5 20 20 3 14 11 26 17 26 6 0
7 5 4 10 -3 6 -1 10 5 10 6 0 8 5 5 10 -3 6 -1 10 5 10 6 0 9 4 6 9 -3 5 1 11
9 15 8 3 15 10 15 15 0 6 16 36 35 66 20 31 33 59 31 64 -3 5 1 12 10 15 9 4
14 13 10 21 -3 9 0 15 8 15 8 0 16 8 19 18 2 9 8 24 11 33 6 13 -6 15 -81 15
-48 -1 -107 -2 -130 -4z m102 -12 c3 -5 2 -10 -4 -10 -5 0 -13 5 -16 10 -3 6
-2 10 4 10 5 0 13 -4 16 -10z m-35 -20 c0 -5 -2 -10 -4 -10 -3 0 -8 5 -11 10
-3 6 -1 10 4 10 6 0 11 -4 11 -10z m80 6 c0 -3 -4 -8 -10 -11 -5 -3 -10 -1
-10 4 0 6 5 11 10 11 6 0 10 -2 10 -4z m-380 -80 c0 -3 -4 -8 -10 -11 -5 -3
-10 -1 -10 4 0 6 5 11 10 11 6 0 10 -2 10 -4z m220 -26 c0 -5 -2 -10 -4 -10
-3 0 -8 5 -11 10 -3 6 -1 10 4 10 6 0 11 -4 11 -10z m35 0 c3 -5 1 -10 -4 -10
-6 0 -11 5 -11 10 0 6 2 10 4 10 3 0 8 -4 11 -10z m-295 -20 c0 -5 -2 -10 -4
-10 -3 0 -8 5 -11 10 -3 6 -1 10 4 10 6 0 11 -4 11 -10z m40 0 c0 -5 -5 -10
-11 -10 -5 0 -7 5 -4 10 3 6 8 10 11 10 2 0 4 -4 4 -10z m80 0 c0 -5 -5 -10
-11 -10 -5 0 -7 5 -4 10 3 6 8 10 11 10 2 0 4 -4 4 -10z m37 -29 c0 -11 -5
-18 -9 -15 -4 3 -5 11 -1 19 7 21 12 19 10 -4z m148 9 c-3 -5 -12 -10 -18 -10
-7 0 -6 4 3 10 19 12 23 12 15 0z m-409 -22 c3 -4 -1 -5 -10 -4 -8 1 -18 5
-22 8 -3 4 1 5 10 4 8 -1 18 -5 22 -8z m119 3 c-9 -8 -36 -10 -30 -2 2 4 11 8
20 8 8 0 13 -3 10 -6z m225 -1 c0 -5 -2 -10 -4 -10 -3 0 -8 5 -11 10 -3 6 -1
10 4 10 6 0 11 -4 11 -10z m115 1 c3 -5 2 -12 -3 -15 -5 -3 -9 1 -9 9 0 17 3
19 12 6z m-275 -21 c0 -5 -5 -10 -11 -10 -5 0 -7 5 -4 10 3 6 8 10 11 10 2 0
4 -4 4 -10z m-287 -35 c-7 -21 -12 -19 -10 4 0 11 5 18 9 15 4 -3 5 -11 1 -19z
m161 17 c3 -5 -1 -9 -9 -9 -8 0 -12 4 -9 9 3 4 7 8 9 8 2 0 6 -4 9 -8z m81 -1
c3 -5 2 -12 -3 -15 -5 -3 -9 1 -9 9 0 17 3 19 12 6z m99 -19 c3 -5 -1 -9 -9
-9 -8 0 -12 4 -9 9 3 4 7 8 9 8 2 0 6 -4 9 -8z m-397 -27 c0 -8 -4 -12 -9 -9
-5 3 -6 10 -3 15 9 13 12 11 12 -6z"/>
</g>
</svg>
